<?xml version="1.0" encoding="UTF-8"?>
<svg viewBox="0 0 285.54315 384.95065" xmlns="http://www.w3.org/2000/svg" xmlns:xlink="http://www.w3.org/1999/xlink">
 <defs>
  <filter id="d">
   <feGaussianBlur stdDeviation="6.11764"/>
  </filter>
  <filter id="g" x="-1.7426" y="-.31684" width="4.4853" height="1.6337">
   <feGaussianBlur stdDeviation="60.60328"/>
  </filter>
  <filter id="f" x="-.01317" y="-.13497" width="1.0263" height="1.2699">
   <feGaussianBlur stdDeviation="2.16687"/>
  </filter>
  <filter id="e" x="-.01317" y="-.13497" width="1.0263" height="1.2699">
   <feGaussianBlur stdDeviation="2.16688"/>
  </filter>
  <filter id="h" x="-.38029" y="-.61532" width="1.7606" height="2.2306">
   <feGaussianBlur stdDeviation="104.01838"/>
  </filter>
  <filter id="i" x="-.09489" y="-.15354" width="1.1898" height="1.3071">
   <feGaussianBlur stdDeviation="25.95547"/>
  </filter>
  <linearGradient id="a">
   <stop stop-color="#333" offset="0"/>
   <stop stop-color="#333" stop-opacity="0" offset="1"/>
  </linearGradient>
  <linearGradient id="c" x1="271.26" x2="268.05" y1="70.051" y2="354.15" gradientTransform="matrix(.59474 0 0 .34408 -22.158 -405.9)" gradientUnits="userSpaceOnUse" xlink:href="#a"/>
  <linearGradient id="b" x1="271.26" x2="268.05" y1="70.051" y2="354.15" gradientTransform="matrix(.59716 0 0 .35131 -23.272 -34.565)" gradientUnits="userSpaceOnUse" xlink:href="#a"/>
 </defs>
 <g transform="translate(2.1924 5.8318)">
  <path d="m12.49 8.8506h256.18v355.59h-256.18z" fill="#22241c" filter="url(#d)"/>
  <path d="m14.181 5.3932c-0.04025 0-0.07465 0.03189-0.07465 0.07465v362.16c0 0.0428 0.0344 0.0746 0.07465 0.0746h1.2503l6.9047-4.0122 6.774 4.0122h1.8475l6.886-4.0122 6.774 4.0122h1.8661l6.886-4.0122 6.7554 4.0122h1.8661l6.9047-4.0122 6.7554 4.0122h1.8661l6.886-4.0122 6.774 4.0122h1.8475l6.9047-4.0122 6.774 4.0122h1.8475l6.886-4.0122 6.774 4.0122h1.8661l6.9047-4.0122 6.7554 4.0122h0.89575l6.9047-4.0122 6.774 4.0122h1.8661l6.886-4.0122 6.774 4.0122h1.8475l6.9047-4.0122 6.774 4.0122h1.8475l6.9047-4.0122 6.774 4.0122h1.8475l6.886-4.0122 6.774 4.0122h1.8475l6.886-4.0122 6.774 4.0122h1.8661l6.886-4.0122 6.774 4.0122h1.8475l6.9047-4.0122 6.774 4.0122h2.2953c0.0403 0 0.056-0.0319 0.056-0.0746v-362.16c0-0.04276-0.0158-0.07465-0.056-0.07465h-1.8288l-7.2406 4.2734-7.3899-4.2734h-0.89574l-7.2406 4.2734-7.3712-4.2734h-0.91441l-7.2406 4.2734-7.3525-4.2734h-0.9144l-7.2406 4.2734-7.3712-4.2734h-0.89574l-7.2406 4.2734-7.3899-4.2734h-0.89574l-7.2406 4.2734-7.3899-4.2734h-0.89574l-7.2406 4.2734-7.3712-4.2734h-0.9144l-7.2406 4.2734-7.3525-4.2548-7.2033 4.2548-7.3899-4.2734h-0.9144l-7.2406 4.2734-7.3525-4.2734h-0.91441l-7.2406 4.2734-7.3899-4.2734h-0.89574l-7.2406 4.2734-7.3712-4.2734h-0.9144l-7.2219 4.2734-7.3899-4.2734h-0.9144l-7.2219 4.2734-7.3712-4.2734h-0.9144l-7.2406 4.2734-7.3712-4.2734h-0.89574l-7.2406 4.2734-7.3899-4.2734h-0.76511z" fill="#808000"/>
  <path transform="matrix(.59716 0 0 .34794 -23.272 32.378)" d="m311.39 444.04c0 126.76-18.684 229.53-41.732 229.53s-41.732-102.76-41.732-229.53 18.684-229.53 41.732-229.53 41.732 102.76 41.732 229.53z" fill="#fff" filter="url(#g)"/>
  <path transform="matrix(.59716 0 0 .59716 -23.272 -83.413)" d="m70.75,162.34375c-.07155,0-.125.0696-.125.125v38.3125c0,.0554.05345.0937.125.0937h9.375c.07155,0 .125-.0384.125-.0937v-38.3125c0-.0554-.05345-.125-.125-.125h-9.375zm16.75,0c-.07155,0-.125.0696-.125.125v38.3125c0,.0554.05345.0937.125.0937h9.375c.07155,0 .125-.0384.125-.0937v-38.3125c0-.0554-.05345-.125-.125-.125h-9.375zm16.75,0c-.0716,0-.125.0696-.125.125v38.3125c0,.0554.0534.0937.125.0937h9.375c.0716,0 .125-.0384.125-.0937v-38.3125c0-.0554-.0534-.125-.125-.125h-9.375zm16.75,0c-.0716,0-.125.0696-.125.125v38.3125c0,.0554.0534.0937.125.0937h9.375c.0716,0 .125-.0384.125-.0937v-38.3125c0-.0554-.0534-.125-.125-.125h-9.375zm16.75,0c-.0716,0-.125.0696-.125.125v38.3125c0,.0554.0534.0937.125.0937h9.375c.0716,0 .125-.0384.125-.0937v-38.3125c0-.0554-.0534-.125-.125-.125h-9.375zm16.75,0c-.0716,0-.125.0696-.125.125v38.3125c0,.0554.0534.0937.125.0937h9.375c.0716,0 .125-.0384.125-.0937v-38.3125c0-.0554-.0534-.125-.125-.125h-9.375zm16.75,0c-.0716,0-.125.0696-.125.125v38.3125c0,.0554.0534.0937.125.0937h9.375c.0716,0 .125-.0384.125-.0937v-38.3125c0-.0554-.0534-.125-.125-.125h-9.375zm16.75,0c-.0716,0-.125.0696-.125.125v38.3125c0,.0554.0534.0937.125.0937h9.375c.0716,0 .125-.0384.125-.0937v-38.3125c0-.0554-.0534-.125-.125-.125h-9.375zm16.75,0c-.0716,0-.125.0696-.125.125v38.3125c0,.0554.0534.0937.125.0937h9.375c.0716,0 .125-.0384.125-.0937v-38.3125c0-.0554-.0534-.125-.125-.125h-9.375zm16.75,0c-.0716,0-.125.0696-.125.125v38.3125c0,.0554.0534.0937.125.0937h9.375c.0716,0 .125-.0384.125-.0937v-38.3125c0-.0554-.0534-.125-.125-.125h-9.375zm16.75,0c-.0716,0-.125.0696-.125.125v38.3125c0,.0554.0534.0937.125.0937h9.375c.0716,0 .125-.0384.125-.0937v-38.3125c0-.0554-.0534-.125-.125-.125h-9.375zm16.75,0c-.0716,0-.15625.0696-.15625.125v38.3125c0,.0554.0847.0937.15625.0937h9.375c.0716,0 .125-.0384.125-.0937v-38.3125c0-.0554-.0534-.125-.125-.125h-9.375zm16.75,0c-.0716,0-.15625.0696-.15625.125v38.3125c0,.0554.0847.0937.15625.0937h9.375c.0716,0 .125-.0384.125-.0937v-38.3125c0-.0554-.0534-.125-.125-.125h-9.375zm16.75,0c-.0716,0-.15625.0696-.15625.125v38.3125c0,.0554.0847.0937.15625.0937h9.34375c.0716,0 .15625-.0384.15625-.0937v-38.3125c0-.0554-.0847-.125-.15625-.125h-9.34375zm16.75,0c-.0716,0-.15625.0696-.15625.125v38.3125c0,.0554.0847.0937.15625.0937h9.34375c.0716,0 .15625-.0384.15625-.0937v-38.3125c0-.0554-.0847-.125-.15625-.125h-9.34375zm16.71875,0c-.0716,0-.125.0696-.125.125v38.3125c0,.0554.0534.0937.125.0937h9.375c.0716,0 .15625-.0384.15625-.0937v-38.3125c0-.0554-.0847-.125-.15625-.125h-9.375zm16.75,0c-.0716,0-.125.0696-.125.125v38.3125c0,.0554.0534.0937.125.0937h9.375c.0716,0 .125-.0384.125-.0937v-38.3125c0-.0554-.0534-.125-.125-.125h-9.375zm16.75,0c-.0716,0-.125.0696-.125.125v38.3125c0,.0554.0534.0937.125.0937h9.375c.0716,0 .125-.0384.125-.0937v-38.3125c0-.0554-.0534-.125-.125-.125h-9.375zm16.75,0c-.0716,0-.125.0696-.125.125v38.3125c0,.0554.0534.0937.125.0937h9.375c.0716,0 .125-.0384.125-.0937v-38.3125c0-.0554-.0534-.125-.125-.125h-9.375zm16.75,0c-.0716,0-.125.0696-.125.125v38.3125c0,.0554.0534.0937.125.0937h9.375c.0716,0 .125-.0384.125-.0937v-38.3125c0-.0554-.0534-.125-.125-.125h-9.375zm16.75,0c-.0716,0-.125.0696-.125.125v38.3125c0,.0554.0534.0937.125.0937h9.375c.0716,0 .125-.0384.125-.0937v-38.3125c0-.0554-.0534-.125-.125-.125h-9.375zm16.75,0c-.0716,0-.125.0696-.125.125v38.3125c0,.0554.0534.0937.125.0937h9.375c.0716,0 .125-.0384.125-.0937v-38.3125c0-.0554-.0534-.125-.125-.125h-9.375zm16.75,0c-.0716,0-.125.0696-.125.125v38.3125c0,.0554.0534.0937.125.0937h9.375c.0716,0 .125-.0384.125-.0937v-38.3125c0-.0554-.0534-.125-.125-.125h-9.375zm16.75,0c-.0716,0-.125.0696-.125.125v38.3125c0,.0554.0534.0937.125.0937h9.375c.0716,0 .125-.0384.125-.0937v-38.3125c0-.0554-.0534-.125-.125-.125h-9.375z" fill="#333" filter="url(#e)" opacity=".37352"/>
  <path transform="matrix(.59716 0 0 .59716 -23.272 -83.413)" d="m72.35508,703.23149c-.07155,0-.125.0696-.125.125v38.3125c0,.0554.05345.0937.125.0937h9.375c.07155,0 .125-.0384.125-.0937v-38.3125c0-.0554-.05345-.125-.125-.125h-9.375zm16.75,0c-.07155,0-.125.0696-.125.125v38.3125c0,.0554.05345.0937.125.0937h9.375c.07155,0 .125-.0384.125-.0937v-38.3125c0-.0554-.05345-.125-.125-.125h-9.375zm16.75,0c-.0716,0-.125.0696-.125.125v38.3125c0,.0554.0534.0937.125.0937h9.375c.0716,0 .125-.0384.125-.0937v-38.3125c0-.0554-.0534-.125-.125-.125h-9.375zm16.75,0c-.0716,0-.125.0696-.125.125v38.3125c0,.0554.0534.0937.125.0937h9.375c.0716,0 .125-.0384.125-.0937v-38.3125c0-.0554-.0534-.125-.125-.125h-9.375zm16.75,0c-.0715,0-.125.0696-.125.125v38.3125c0,.0554.0535.0937.125.0937h9.375c.0716,0 .125-.0384.125-.0937v-38.3125c0-.0554-.0534-.125-.125-.125h-9.375zm16.75,0c-.0715,0-.125.0696-.125.125v38.3125c0,.0554.0535.0937.125.0937h9.375c.0716,0 .125-.0384.125-.0937v-38.3125c0-.0554-.0534-.125-.125-.125h-9.375zm16.75,0c-.0715,0-.125.0696-.125.125v38.3125c0,.0554.0535.0937.125.0937h9.375c.0716,0 .125-.0384.125-.0937v-38.3125c0-.0554-.0534-.125-.125-.125h-9.375zm16.75,0c-.0715,0-.125.0696-.125.125v38.3125c0,.0554.0535.0937.125.0937h9.375c.0716,0 .125-.0384.125-.0937v-38.3125c0-.0554-.0534-.125-.125-.125h-9.375zm16.75,0c-.0715,0-.125.0696-.125.125v38.3125c0,.0554.0535.0937.125.0937h9.375c.0716,0 .125-.0384.125-.0937v-38.3125c0-.0554-.0534-.125-.125-.125h-9.375zm16.75,0c-.0715,0-.125.0696-.125.125v38.3125c0,.0554.0535.0937.125.0937h9.375c.0716,0 .125-.0384.125-.0937v-38.3125c0-.0554-.0534-.125-.125-.125h-9.375zm16.75,0c-.0715,0-.125.0696-.125.125v38.3125c0,.0554.0535.0937.125.0937h9.375c.0716,0 .125-.0384.125-.0937v-38.3125c0-.0554-.0534-.125-.125-.125h-9.375zm16.75,0c-.0716,0-.15625.0696-.15625.125v38.3125c0,.0554.0847.0937.15625.0937h9.375c.0716,0 .125-.0384.125-.0937v-38.3125c0-.0554-.0534-.125-.125-.125h-9.375zm16.75,0c-.0716,0-.15625.0696-.15625.125v38.3125c0,.0554.0847.0937.15625.0937h9.375c.0716,0 .125-.0384.125-.0937v-38.3125c0-.0554-.0534-.125-.125-.125h-9.375zm16.75,0c-.0716,0-.15625.0696-.15625.125v38.3125c0,.0554.0847.0937.15625.0937h9.34375c.0716,0 .15625-.0384.15625-.0937v-38.3125c0-.0554-.0847-.125-.15625-.125h-9.34375zm16.75,0c-.0716,0-.15625.0696-.15625.125v38.3125c0,.0554.0847.0937.15625.0937h9.34375c.0716,0 .15625-.0384.15625-.0937v-38.3125c0-.0554-.0847-.125-.15625-.125h-9.34375zm16.71875,0c-.0716,0-.125.0696-.125.125v38.3125c0,.0554.0534.0937.125.0937h9.375c.0716,0 .15625-.0384.15625-.0937v-38.3125c0-.0554-.0847-.125-.15625-.125h-9.375zm16.75,0c-.0716,0-.125.0696-.125.125v38.3125c0,.0554.0534.0937.125.0937h9.375c.0716,0 .125-.0384.125-.0937v-38.3125c0-.0554-.0534-.125-.125-.125h-9.375zm16.75,0c-.0716,0-.125.0696-.125.125v38.3125c0,.0554.0534.0937.125.0937h9.375c.0716,0 .125-.0384.125-.0937v-38.3125c0-.0554-.0534-.125-.125-.125h-9.375zm16.75,0c-.0716,0-.125.0696-.125.125v38.3125c0,.0554.0534.0937.125.0937h9.375c.0716,0 .125-.0384.125-.0937v-38.3125c0-.0554-.0534-.125-.125-.125h-9.375zm16.75,0c-.0716,0-.125.0696-.125.125v38.3125c0,.0554.0534.0937.125.0937h9.375c.0716,0 .125-.0384.125-.0937v-38.3125c0-.0554-.0534-.125-.125-.125h-9.375zm16.75,0c-.0716,0-.125.0696-.125.125v38.3125c0,.0554.0534.0937.125.0937h9.375c.0716,0 .125-.0384.125-.0937v-38.3125c0-.0554-.0534-.125-.125-.125h-9.375zm16.75,0c-.0716,0-.125.0696-.125.125v38.3125c0,.0554.0534.0937.125.0937h9.375c.0716,0 .125-.0384.125-.0937v-38.3125c0-.0554-.0534-.125-.125-.125h-9.375zm16.75,0c-.0716,0-.125.0696-.125.125v38.3125c0,.0554.0534.0937.125.0937h9.375c.0716,0 .125-.0384.125-.0937v-38.3125c0-.0554-.0534-.125-.125-.125h-9.375zm16.75,0c-.0716,0-.125.0696-.125.125v38.3125c0,.0554.0534.0937.125.0937h9.375c.0716,0 .125-.0384.125-.0937v-38.3125c0-.0554-.0534-.125-.125-.125h-9.375z" fill="#333" filter="url(#f)" opacity=".37352"/>
  <path d="m15.14676,37.97394h248.09235c.0436,0 .0786.01567.0786.03513v55.18975c0,.01946-.0351.03513-.0786.03513h-248.09235c-.04357,0-.07864-.01567-.07864-.03513v-55.18975c0-.01946.03507-.03513.07864-.03513z" fill="url(#b)" opacity=".99074"/>
  <path transform="scale(1,-1)" d="m16.10494-334.85568h247.08766c.0434,0 .0783.0153.0783.0344v54.05377c0,.0191-.0349.0344-.0783.0344h-247.08766c-.04339,0-.07832-.0154-.07832-.0344v-54.05377c0-.0191.03493-.0344.07832-.0344z" fill="url(#c)" opacity=".99074"/>
  <path d="m38.506 52.722h200.4c6.3701 0 11.498 4.8015 11.498 10.766v246.12c0 5.9642-5.1283 10.766-11.498 10.766h-200.4c-6.3701 0-11.498-4.8015-11.498-10.766v-246.12c0-5.9642 5.1283-10.766 11.498-10.766z" fill="none" opacity=".99074" stroke="#b3b3b3" stroke-width=".59716"/>
  <g transform="matrix(.59716 0 0 .59716 9.8535 -71.993)" fill="#001700" font-family="Sans" font-size="40" letter-spacing="0" word-spacing="0">
   <path d="m127.88 276.39c-2.9067 2e-5 -5.0134 0.81335-6.32 2.44-1.28 1.6-1.92 3.8-1.92 6.6-1e-5 1.36 0.15999 2.6 0.48 3.72 0.31999 1.0933 0.79999 2.04 1.44 2.84s1.44 1.4267 2.4 1.88c0.95999 0.42667 2.08 0.64 3.36 0.64 0.69332 0 1.28-0.0133 1.76-0.04 0.50665-0.0267 0.94665-0.08 1.32-0.16v-9.64h6.24v13.72c-0.74669 0.29333-1.9467 0.6-3.6 0.92-1.6534 0.34666-3.6934 0.52-6.12 0.52-2.08 0-3.9734-0.32-5.68-0.96-1.68-0.64-3.12-1.5733-4.32-2.8s-2.1333-2.7333-2.8-4.52c-0.64-1.7867-0.96-3.8267-0.96-6.12 0-2.32 0.36-4.3733 1.08-6.16s1.7067-3.2933 2.96-4.52c1.2533-1.2533 2.72-2.2 4.4-2.84 1.7066-0.63998 3.52-0.95998 5.44-0.96 1.3066 2e-5 2.48 0.0934 3.52 0.28 1.0666 0.16002 1.9733 0.36002 2.72 0.6 0.77331 0.21336 1.4 0.44002 1.88 0.68 0.50664 0.24002 0.86664 0.42669 1.08 0.56l-1.8 5c-0.85336-0.45332-1.84-0.83998-2.96-1.16-1.0934-0.34665-2.2934-0.51998-3.6-0.52"/>
   <path d="m154.68312,283.54701c-.53334-.13332-1.16001-.26665-1.88-.4-.72001-.15999-1.49334-.23999-2.32-.24-.37334,1e-005-.82667.04-1.36.12-.50667.0533-.89334.12001-1.16.2v16.08h-5.96v-19.92c1.06667-.37332 2.32-.71998 3.76-1.04 1.46666-.34665 3.09333-.51998 4.88-.52 .31999,2e-005 .70666.0267 1.16.08 .45333.0267.90666.08 1.36.16 .45332.0534.90666.13335 1.36.24 .45332.08.83999.18668 1.16.32l-1,4.92"/>
   <path d="m157.4875,288.94701c0-1.86666.28-3.49332.84-4.88 .58666-1.41332 1.34666-2.58665 2.28-3.52s1.99999-1.63998 3.2-2.12c1.22666-.47998 2.47999-.71998 3.76-.72 2.98665,2e-005 5.34665.92002 7.08,2.76 1.73331,1.81335 2.59998,4.49334 2.6,8.04-2e-005,.34667-.0134.73334-.04,1.16-.0267.40001-.0534.76-.08,1.08h-13.52c.13333,1.22667.70666,2.2 1.72,2.92s2.37332,1.08 4.08,1.08c1.09332,0 2.15998-.0933 3.2-.28 1.06665-.21333 1.93331-.46667 2.6-.76l.8,4.84c-.32002.16-.74669.32-1.28.48s-1.13335.29333-1.8.4c-.64002.13333-1.33335.24-2.08.32s-1.49335.12-2.24.12c-1.89334,0-3.54668-.28-4.96-.84-1.38667-.56-2.54667-1.32-3.48-2.28-.90667-.98667-1.58667-2.14667-2.04-3.48-.42667-1.33333-.64-2.77333-.64-4.32m14-2.28c-.0267-.50666-.12002-.99999-.28-1.48-.13335-.47999-.36002-.90666-.68-1.28-.29335-.37332-.68001-.67999-1.16-.92-.45335-.23999-1.02668-.35999-1.72-.36-.66668,1e-005-1.24001.12001-1.72.36-.48001.21335-.88001.50668-1.2.88s-.57334.81334-.76,1.32c-.16001.48001-.28001.97334-.36,1.48h7.88"/>
   <path d="m180.84687,288.94701c0-1.86666.28-3.49332.84-4.88 .58667-1.41332 1.34667-2.58665 2.28-3.52s2-1.63998 3.2-2.12c1.22666-.47998 2.47999-.71998 3.76-.72 2.98666,2e-005 5.34665.92002 7.08,2.76 1.73332,1.81335 2.59998,4.49334 2.6,8.04-2e-005,.34667-.0133.73334-.04,1.16-.0267.40001-.0533.76-.08,1.08h-13.52c.13333,1.22667.70666,2.2 1.72,2.92s2.37333,1.08 4.08,1.08c1.09332,0 2.15999-.0933 3.2-.28 1.06665-.21333 1.93332-.46667 2.6-.76l.8,4.84c-.32002.16-.74668.32-1.28.48s-1.13335.29333-1.8.4c-.64001.13333-1.33334.24-2.08.32s-1.49334.12-2.24.12c-1.89334,0-3.54667-.28-4.96-.84-1.38667-.56-2.54667-1.32-3.48-2.28-.90667-.98667-1.58666-2.14667-2.04-3.48-.42666-1.33333-.64-2.77333-.64-4.32m14-2.28c-.0267-.50666-.12001-.99999-.28-1.48-.13334-.47999-.36001-.90666-.68-1.28-.29334-.37332-.68001-.67999-1.16-.92-.45334-.23999-1.02667-.35999-1.72-.36-.66667,1e-005-1.24001.12001-1.72.36-.48.21335-.88.50668-1.2.88s-.57334.81334-.76,1.32c-.16.48001-.28.97334-.36,1.48h7.88"/>
   <path d="m205.21 278.99c1.0133-0.29332 2.32-0.55998 3.92-0.8 1.6-0.26665 3.28-0.39998 5.04-0.4 1.7866 2e-5 3.2666 0.24002 4.44 0.72 1.2 0.45335 2.1466 1.1067 2.84 1.96s1.1866 1.8667 1.48 3.04 0.43998 2.48 0.44 3.92v11.88h-5.96v-11.16c-2e-5 -1.92-0.25335-3.28-0.76-4.08s-1.4534-1.2-2.84-1.2c-0.42668 1e-5 -0.88001 0.0267-1.36 0.08-0.48001 0.0267-0.90668 0.0667-1.28 0.12v16.24h-5.96v-20.32"/>
   <path d="m259.37 271.59v5.32h-8.36v22.4h-6.24v-22.4h-8.36v-5.32h22.96"/>
   <path d="m258.97 288.95c0-1.8667 0.28-3.4933 0.84-4.88 0.58667-1.4133 1.3467-2.5866 2.28-3.52s2-1.64 3.2-2.12c1.2267-0.47998 2.48-0.71998 3.76-0.72 2.9867 2e-5 5.3466 0.92002 7.08 2.76 1.7333 1.8134 2.6 4.4933 2.6 8.04-2e-5 0.34667-0.0134 0.73334-0.04 1.16-0.0267 0.40001-0.0533 0.76-0.08 1.08h-13.52c0.13332 1.2267 0.70665 2.2 1.72 2.92s2.3733 1.08 4.08 1.08c1.0933 0 2.16-0.0933 3.2-0.28 1.0666-0.21333 1.9333-0.46667 2.6-0.76l0.8 4.84c-0.32002 0.16-0.74668 0.32-1.28 0.48s-1.1334 0.29333-1.8 0.4c-0.64001 0.13333-1.3333 0.24-2.08 0.32s-1.4934 0.12-2.24 0.12c-1.8934 0-3.5467-0.28-4.96-0.84-1.3867-0.56-2.5467-1.32-3.48-2.28-0.90668-0.98667-1.5867-2.1467-2.04-3.48-0.42666-1.3333-0.64-2.7733-0.64-4.32m14-2.28c-0.0267-0.50666-0.12001-0.99999-0.28-1.48-0.13334-0.47999-0.36001-0.90666-0.68-1.28-0.29334-0.37332-0.68001-0.67999-1.16-0.92-0.45334-0.23999-1.0267-0.35999-1.72-0.36-0.66667 1e-5 -1.24 0.12001-1.72 0.36-0.48 0.21335-0.88 0.50668-1.2 0.88s-0.57335 0.81334-0.76001 1.32c-0.16 0.48001-0.28 0.97334-0.35999 1.48h7.88"/>
   <path d="m291.37125,295.14701c.58666,0 1.14665-.0133 1.68-.04s.95999-.0667 1.28-.12v-4.52c-.24001-.0533-.60001-.10666-1.08-.16s-.92001-.08-1.32-.08c-.56001,1e-005-1.09334.04-1.6.12-.48001.0533-.90668.17334-1.28.36s-.66667.44-.88.76-.32001.72-.32,1.2c-1e-005,.93334.30666,1.58667.92,1.96 .63999.34667 1.50666.52 2.6.52m-.48-17.44c1.75999,2e-005 3.22665.20002 4.4.6s2.10665.97335 2.8,1.72c.71998.74668 1.22665,1.65335 1.52,2.72s.43998,2.25334.44,3.56v12.4c-.85335.18666-2.04002.4-3.56.64-1.52001.26666-3.36001.4-5.52.4-1.36001,0-2.60001-.12-3.72-.36-1.09334-.24-2.04-.62667-2.84-1.16-.8-.56-1.41334-1.28-1.84-2.16s-.64-1.96-.64-3.24c0-1.22666.24-2.26666.72-3.12 .50666-.85333 1.17333-1.53333 2-2.04s1.77333-.86666 2.84-1.08c1.06666-.23999 2.17332-.35999 3.32-.36 .77332,1e-005 1.45332.04 2.04.12 .61332.0533 1.10665.13334 1.48.24v-.56c-1e-005-1.01332-.30668-1.82666-.92-2.44s-1.68001-.91999-3.2-.92c-1.01334,1e-005-2.01334.08-3,.24-.98667.13335-1.84.33335-2.56.6l-.76-4.8c.34666-.10665.77333-.21332 1.28-.32 .53333-.13332 1.10666-.23998 1.72-.32 .61333-.10665 1.25333-.18665 1.92-.24 .69332-.08 1.38666-.11998 2.08-.12"/>
  </g>
  <g transform="matrix(.15122 0 0 .15122 -26.591 222.29)">
   <path d="m435.06 475.51h101.92c4.8544 0 8.7625 3.9081 8.7625 8.7625v103.51c0 4.8544-3.9081 8.7625-8.7625 8.7625h-101.92c-4.8544 0-8.7625-3.9081-8.7625-8.7625v-103.51c0-4.8544 3.9081-8.7625 8.7625-8.7625z" fill="none" stroke="#007a00" stroke-width="3.8084"/>
   <path transform="matrix(.37834 0 0 .38336 380.09 393.01)" d="m374.29 366.65c0 52.073-42.213 94.286-94.286 94.286s-94.286-42.213-94.286-94.286 42.213-94.286 94.286-94.286 94.286 42.213 94.286 94.286z" fill="#008000"/>
   <g transform="matrix(.47944 0 0 .4858 401.05 446)" fill="#008000" font-family="Sans" font-size="31.565" letter-spacing="0" word-spacing="0">
    <path d="m142.53 294.57c-1.2079-2.5631-2.4011-5.2293-3.5795-7.9987s-2.298-5.5092-3.3586-8.2196-2.0475-5.303-2.9608-7.7777c-0.88383-2.4747-1.6498-4.6843-2.298-6.6287h7.6009c0.58921 1.7677 1.2226 3.6826 1.9002 5.7449l2.1212 6.0984c0.73651 2.0328 1.4436 3.9772 2.1212 5.8333s1.311 3.4617 1.9002 4.8169c0.55975-1.3552 1.1784-2.9608 1.856-4.8169 0.70704-1.856 1.4141-3.8004 2.1212-5.8333 0.7365-2.0328 1.4436-4.0656 2.1212-6.0984 0.70704-2.0622 1.3552-3.9772 1.9444-5.7449h7.3358c-0.67763 1.9444-1.4583 4.154-2.3421 6.6287s-1.8561 5.0673-2.9166 7.7777-2.1801 5.4503-3.3586 8.2196-2.3716 5.4356-3.5795 7.9987h-6.6287"/>
    <path d="m165.36 294.57v-30.625h20.682v5.7891h-13.788v6.01h12.241v5.6565h-12.241v7.38h14.804v5.7891h-21.698"/>
    <path d="m207.06 269.24c-3.2113 2e-5 -5.5387 0.89858-6.9822 2.6957-1.4141 1.7677-2.1212 4.1982-2.1212 7.2916-1e-5 1.5025 0.17676 2.8725 0.5303 4.1098 0.35352 1.2079 0.88382 2.2538 1.5909 3.1376s1.5909 1.5762 2.6515 2.077c1.0606 0.47138 2.2979 0.70707 3.7121 0.70706 0.76597 1e-5 1.4141-0.0147 1.9444-0.0442 0.55974-0.0294 1.0458-0.0884 1.4583-0.17676v-10.65h6.8939v15.158c-0.82494 0.32408-2.1507 0.66288-3.9772 1.0164-1.8266 0.38299-4.0804 0.57449-6.7613 0.57449-2.298 0-4.3897-0.35353-6.2752-1.0606-1.856-0.70706-3.4469-1.7382-4.7727-3.0934s-2.3569-3.0197-3.0934-4.9936c-0.70707-1.9739-1.0606-4.2276-1.0606-6.7613 0-2.5631 0.39773-4.8316 1.1932-6.8055s1.8855-3.6384 3.2702-4.9936c1.3847-1.3846 3.005-2.4305 4.8611-3.1376 1.8855-0.70703 3.8888-1.0606 6.01-1.0606 1.4436 3e-5 2.7398 0.10314 3.8888 0.30934 1.1784 0.1768 2.1801 0.39775 3.005 0.66287 0.85435 0.23572 1.5467 0.48614 2.077 0.75126 0.55973 0.26517 0.95746 0.4714 1.1932 0.61868l-1.9886 5.5239c-0.94278-0.50081-2.0328-0.928-3.2702-1.2816-1.2079-0.38297-2.5337-0.57447-3.9772-0.57449"/>
   </g>
  </g>
  <path d="m263.33 367.82c0.86131-0.93117 0.97503-3.8154 3.445-6.4713 0.72971-0.78465 1.6651 1.754 2.8862 0.24698-0.24474-12.295-0.0888-109.3-0.2206-182.89-0.16303-91.026-3.026-165.25-6.7168-174.14" fill="#445016" opacity=".99074"/>
  <g transform="matrix(.14323 0 0 .13385 43.721 162.3)" opacity=".5463">
   <path transform="matrix(.92166 0 0 1.2007 152.25 -130.59)" d="m841.09 372.67c0 112.03-146.95 202.86-328.23 202.86s-328.23-90.822-328.23-202.86 146.95-202.86 328.23-202.86 328.23 90.822 328.23 202.86z" filter="url(#i)"/>
   <path transform="matrix(.9913 0 0 1.25 122.25 -210.39)" d="m841.09 372.67c0 112.03-146.95 202.86-328.23 202.86s-328.23-90.822-328.23-202.86 146.95-202.86 328.23-202.86 328.23 90.822 328.23 202.86z" fill="#ececec"/>
   <path transform="matrix(.60096 0 0 .7578 322.44 -26.959)" d="m841.09 372.67c0 112.03-146.95 202.86-328.23 202.86s-328.23-90.822-328.23-202.86 146.95-202.86 328.23-202.86 328.23 90.822 328.23 202.86z" filter="url(#h)"/>
   <path d="m870.28 131.19c-2.1042 11.329-5.969 22.28-11.406 32.75-1.8785 13.955-5.0145 27.5-9.2812 40.531 18.094-8.1013 37.998-12.594 58.906-12.594 9.7988 0 19.379 0.99601 28.656 2.875-21.389 20.76-56.312 34.25-95.781 34.25h-1.4062c-7.3016 15.822-16.359 30.653-26.906 44.25 2.2823 0.0428 4.5692 0.0625 6.875 0.0625 89.549 0 150.12-24.066 150.12-72.875 0-44.48-34.891-59.731-99.781-69.25z" fill="#999"/>
   <path d="m394.32 113.88c-0.55037 6.3122-0.82575 12.677-0.82575 19.125 0 125.78 106.82 227.75 238.58 227.75s238.58-101.97 238.58-227.75c0-6.4479-0.27538-12.813-0.82575-19.125h-475.5z" fill="#808080"/>
   <path transform="matrix(1.0182 0 0 1.1029 104.08 -150.18)" d="m754.34 236.95c0 80.476-105.56 145.71-235.77 145.71s-235.77-65.239-235.77-145.71 105.56-145.71 235.77-145.71 235.77 65.239 235.77 145.71z" fill="#b3b3b3"/>
   <path transform="matrix(.95482 0 0 1.0196 136.93 -135.44)" d="m754.34 236.95c0 80.476-105.56 145.71-235.77 145.71s-235.77-65.239-235.77-145.71 105.56-145.71 235.77-145.71 235.77 65.239 235.77 145.71z" fill="#999"/>
   <path d="m632.06 21.317c-106.32 0-192.5 59.145-192.5 132.12 0 13.149 2.8219 25.857 8.0312 37.844 40.708 38.352 108.13 63.438 184.47 63.438s143.79-25.086 184.5-63.438c5.2093-11.986 8.0312-24.695 8.0312-37.844 0-72.98-86.208-132.12-192.53-132.12z" fill="#445016"/>
  </g>
 </g>
</svg>
